# xmcd
#
# Track frame offsets: 
#        150
#        9684
#        20135
#        45067
#        62140
#        77395
#        102219
#        119073
#        132764
#        146300
#        168591
#        186301
#        194989
#        207560
#        221535
#        248457
#        263088
#        290924
#
# Disc length: 4033 seconds
#
# Revision: 1
# Processed by: cddbd v1.5.2PL0 Copyright (c) Steve Scherf et al.
# Submitted via: ExactAudioCopyFreeDBPlugin 1.0
#
DISCID=100fbf12
DTITLE=Various Artist - Blue Note Trip 10 - CD2 - Early Mornings
DYEAR=2012
DGENRE=Jazz
TTITLE0=David Axelrod - The Human Abstract (2005 digital remaster)
TTITLE1=Julie London - Don't Smoke In Bed
TTITLE2=Booker Ervin - Tyra (1997 digital remaster)
TTITLE3=Lee Morgan - You Go To My Head (2004 digital remaster - Rudy V
TTITLE3=an Gelder 24Bit mastering)
TTITLE4=Angela McCluskey - It's Been Done
TTITLE5=Grant Green - Tracin' Tracy (digital remastered)
TTITLE6=Lou Rawls - Blues For The Weepers (2006 digital remaster)
TTITLE7=Martin Denny - A Taste Of Honey (2012 remaster)
TTITLE8=Dinah Washington - For All We Know (2003 digital remaster)
TTITLE9=Pete La Roca - Lazy Afternoon (digital remastered - Rudy Van G
TTITLE9=elder 24-Bit mastering)
TTITLE10=Andrew Hill - Erato (2006 digital remaster)
TTITLE11=Peggy Lee - Maybe It's Because (I Love You Too Much)
TTITLE12=Elmer Bernstein - Thinking Of Baby (1996 digital remaster)
TTITLE13=Marlena Shaw - Last Tango In Paris
TTITLE14=Herbie Hancock - Driftin' (2007 digital remaster - Rudy Van G
TTITLE14=elder Edition)
TTITLE15=Stacey Kent - Ces Petits Riens
TTITLE16=Duke Pearson - Los Ojos Alegres (The Happy Eyes)
TTITLE17=Paolo Fresu - Apres Midi
EXTD=YEAR: 2012
EXTT0=
EXTT1=
EXTT2=
EXTT3=
EXTT4=
EXTT5=
EXTT6=
EXTT7=
EXTT8=
EXTT9=
EXTT10=
EXTT11=
EXTT12=
EXTT13=
EXTT14=
EXTT15=
EXTT16=
EXTT17=
PLAYORDER=
